<svg xmlns="http://www.w3.org/2000/svg" viewBox="0 0 24 24"><defs><linearGradient id="darkGradient" x1="0%" y1="0%" x2="100%" y2="100%"><stop offset="0%" style="stop-color: #0D47A1; stop-opacity: 1"/><stop offset="100%" style="stop-color: #1E88E5; stop-opacity: 1"/></linearGradient></defs><rect width="24" height="24" fill="url(#darkGradient)"/><path d="M12 2a3 3 0 1 1 3 3c0 1.5-1.35 3.25-1.5 3.5-.15-.25-1.5-2-1.5-3.5A3 3 0 0 1 12 2zm0 5c0 1.25 1.5 3.5 1.5 4.75S12 14.25 12 16s-1.5-1-1.5-2.25S11.75 7 12 7zm-5 8c1 0 1.5 1 1.5 2.5S8 20 7 20s-1.5-1-1.5-2.5S6 15 7 15zm10 0c1 0 1.5 1 1.5 2.5S18 20 17 20s-1.5-1-1.5-2.5S16 15 17 15z" fill="#FFF"/></svg>