<svg xmlns="http://www.w3.org/2000/svg" viewBox="0 0 24 24"><defs><linearGradient id="greenGradient" x1="0%" y1="0%" x2="100%" y2="100%"><stop offset="0%" style="stop-color: #4CAF50; stop-opacity: 1"/><stop offset="100%" style="stop-color: #2E7D32; stop-opacity: 1"/></linearGradient></defs><rect width="24" height="24" fill="url(#greenGradient)"/><path d="M8 10c-1.25 0-2.25 1-2.25 2.25S6.75 14.5 8 14.5s2.25-1 2.25-2.25S9.25 10 8 10zm8 0c-1.25 0-2.25 1-2.25 2.25S14.75 14.5 16 14.5s2.25-1 2.25-2.25S17.25 10 16 10z" fill="#FFF"/><path d="M8 16a3.5 3.5 0 1 0 7 0H8zm8-2a3.5 3.5 0 0 0-6.75-1.5h3.5A3.5 3.5 0 0 0 16 14z" fill="#FFF"/></svg>